{"title":"Alone S01E10 Triumph XviD-AFG","uid":12259083,"size":717884398,"categoryP":"video","categoryS":"tv_shows","magnet":"?xt=urn:btih:28cce3abd101171783964f6f307033cefcb0ff0d&amp;dn=Alone+S01E10+Triumph+XviD-AFG&amp;tr=udp%3A%2F%2Ftracker.openbittorrent.com%3A80&amp;tr=udp%3A%2F%2Fopen.demonii.com%3A1337&amp;tr=udp%3A%2F%2Ftracker.coppersurfer.tk%3A6969&amp;tr=udp%3A%2F%2Fexodus.desync.com%3A6969","seeders":5,"leechers":0,"uploader":"Mulva1989","files":2,"time":1440145511,"description":"Alone S01E10 Triumph XviD-AFG\n\nJust two men remain on Vancouver Island as a vicious storm approaches, leaving them having to contend with the elements and starvation.\n\nScreens @ &lt;a href=&quot;\nhttps://yuq.me/users/50/321/jXSn8vi0pb.jpg&quot; rel=&quot;nofollow&quot; target=&quot;_NEW&quot;&gt;\nhttps://yuq.me/users/50/321/jXSn8vi0pb.jpg&lt;/a&gt; &lt;a href=&quot;\nhttps://yuq.me/users/50/321/mvIAs6nrkW.jpg&quot; rel=&quot;nofollow&quot; target=&quot;_NEW&quot;&gt;\nhttps://yuq.me/users/50/321/mvIAs6nrkW.jpg&lt;/a&gt;\n\nFormat : AVI\nFormat/Info : Audio Video Interleave\nFile size : 685 MiB\nDuration : 41mn 49s\nOverall bit rate : 2 289 Kbps\nWriting application : Lavf56.36.100\n\nVideo\nID : 0\nFormat : xvid\nCodec ID : xvid\nDuration : 41mn 49s\nBit rate : 2 147 Kbps\nWidth : 640 pixels\nHeight : 360 pixels\nDisplay aspect ratio : 16:9\nFrame rate : 29.970 fps\nBits/(Pixel*Frame) : 0.311\nStream size : 642 MiB (94%)\n\nAudio\nID : 1\nFormat : MPEG Audio\nFormat version : Version 1\nFormat profile : Layer 3\nMode : Joint stereo\nMode extension : MS Stereo\nCodec ID : 55\nCodec ID/Hint : MP3\nDuration : 41mn 49s\nBit rate mode : Constant\nBit rate : 128 Kbps\nChannel(s) : 2 channels\nSampling rate : 48.0 KHz\nCompression mode : Lossy\nStream size : 38.3 MiB (6%)\nAlignment : Aligned on interleaves\nInterleave, duration : 24 ms (0.72 video frame)\nInterleave, preload duratio : 24 ms","torrent":{"xt":"urn:btih:28cce3abd101171783964f6f307033cefcb0ff0d","amp;dn":"Alone+S01E10+Triumph+XviD-AFG","amp;tr":["udp%3A%2F%2Ftracker.openbittorrent.com%3A80","udp%3A%2F%2Fopen.demonii.com%3A1337","udp%3A%2F%2Ftracker.coppersurfer.tk%3A6969","udp%3A%2F%2Fexodus.desync.com%3A6969"],"infoHash":"28cce3abd101171783964f6f307033cefcb0ff0d","infoHashBuffer":{"type":"Buffer","data":[40,204,227,171,209,1,23,23,131,150,79,111,48,112,51,206,252,176,255,13]},"announce":[],"urlList":[]}}